<svg width="36" height="36" viewBox="0 0 36 36" fill="none" xmlns="http://www.w3.org/2000/svg">
<path d="M36 32C36 34.209 34.209 36 32 36H4C1.791 36 0 34.209 0 32V4C0 1.791 1.791 0 4 0H32C34.209 0 36 1.791 36 4V32Z" fill="#77B255"/>
<path d="M31.999 16H22.828L29.727 9.101C30.508 8.32 30.509 7.054 29.728 6.273C28.946 5.491 27.68 5.492 26.899 6.273L20 13.172V4C20 2.896 19.104 2 18 2C16.896 2 16 2.896 16 4V13.171L9.101 6.272C8.32 5.491 7.053 5.491 6.273 6.272C5.492 7.053 5.492 8.319 6.273 9.1L13.173 16H4C2.896 16 1.999 16.896 2 18C2 19.104 2.896 20 3.999 20H13.173L6.273 26.9C5.492 27.68 5.492 28.947 6.273 29.728C7.053 30.508 8.32 30.508 9.1 29.728L16 22.828V32C16 33.104 16.896 34 18 34C19.104 34 20 33.104 20 32V22.828L26.899 29.727C27.68 30.508 28.946 30.509 29.727 29.728C30.508 28.947 30.508 27.68 29.727 26.899L22.828 20H31.999C33.104 20 34 19.105 34 18.001C34 16.896 33.104 16 31.999 16Z" fill="white"/>
</svg>
